<mxfile host="app.diagrams.net" agent="Mozilla/5.0 (Windows NT 10.0; Win64; x64) AppleWebKit/537.36 (KHTML, like Gecko) Chrome/136.0.0.0 Safari/537.36" version="26.3.0">
  <diagram name="Trang-1" id="fwzblSnmZVpL71ZOIMsa">
    <mxGraphModel dx="1281" dy="1731" grid="1" gridSize="10" guides="1" tooltips="1" connect="1" arrows="1" fold="1" page="1" pageScale="1" pageWidth="827" pageHeight="1169" math="0" shadow="0">
      <root>
        <mxCell id="0" />
        <mxCell id="1" parent="0" />
        <mxCell id="VfObI5IF9muUUuVanHOG-1" value="Đơn xin nghỉ phép" style="shape=umlFrame;whiteSpace=wrap;html=1;pointerEvents=0;recursiveResize=0;container=1;collapsible=0;width=160;" vertex="1" parent="1">
          <mxGeometry x="107" y="-1070" width="720" height="720" as="geometry" />
        </mxCell>
        <mxCell id="VfObI5IF9muUUuVanHOG-2" value="" style="ellipse;html=1;shape=endState;fillColor=strokeColor;" vertex="1" parent="VfObI5IF9muUUuVanHOG-1">
          <mxGeometry x="333.37" y="630" width="30" height="30" as="geometry" />
        </mxCell>
        <mxCell id="VfObI5IF9muUUuVanHOG-39" value="" style="edgeStyle=orthogonalEdgeStyle;rounded=0;orthogonalLoop=1;jettySize=auto;html=1;exitX=0.5;exitY=1;exitDx=0;exitDy=0;" edge="1" parent="VfObI5IF9muUUuVanHOG-1" source="VfObI5IF9muUUuVanHOG-3" target="VfObI5IF9muUUuVanHOG-15">
          <mxGeometry relative="1" as="geometry" />
        </mxCell>
        <mxCell id="VfObI5IF9muUUuVanHOG-3" value="" style="ellipse;fillColor=strokeColor;html=1;" vertex="1" parent="VfObI5IF9muUUuVanHOG-1">
          <mxGeometry x="334" y="10" width="30" height="30" as="geometry" />
        </mxCell>
        <mxCell id="VfObI5IF9muUUuVanHOG-22" style="edgeStyle=orthogonalEdgeStyle;rounded=0;orthogonalLoop=1;jettySize=auto;html=1;entryX=0.5;entryY=0;entryDx=0;entryDy=0;exitX=0.5;exitY=1;exitDx=0;exitDy=0;" edge="1" parent="VfObI5IF9muUUuVanHOG-1" source="VfObI5IF9muUUuVanHOG-4" target="VfObI5IF9muUUuVanHOG-65">
          <mxGeometry relative="1" as="geometry">
            <mxPoint x="350" y="270" as="targetPoint" />
          </mxGeometry>
        </mxCell>
        <mxCell id="VfObI5IF9muUUuVanHOG-4" value="Đã gửi" style="rounded=1;whiteSpace=wrap;html=1;" vertex="1" parent="VfObI5IF9muUUuVanHOG-1">
          <mxGeometry x="309" y="180" width="80" height="30" as="geometry" />
        </mxCell>
        <mxCell id="VfObI5IF9muUUuVanHOG-24" style="edgeStyle=orthogonalEdgeStyle;rounded=0;orthogonalLoop=1;jettySize=auto;html=1;entryX=0.5;entryY=0;entryDx=0;entryDy=0;" edge="1" parent="VfObI5IF9muUUuVanHOG-1" source="VfObI5IF9muUUuVanHOG-65" target="VfObI5IF9muUUuVanHOG-11">
          <mxGeometry relative="1" as="geometry">
            <mxPoint x="350" y="300" as="sourcePoint" />
          </mxGeometry>
        </mxCell>
        <mxCell id="VfObI5IF9muUUuVanHOG-25" style="edgeStyle=orthogonalEdgeStyle;rounded=0;orthogonalLoop=1;jettySize=auto;html=1;entryX=0.5;entryY=0;entryDx=0;entryDy=0;exitX=0;exitY=0.5;exitDx=0;exitDy=0;" edge="1" parent="VfObI5IF9muUUuVanHOG-1" source="VfObI5IF9muUUuVanHOG-65" target="VfObI5IF9muUUuVanHOG-9">
          <mxGeometry relative="1" as="geometry">
            <mxPoint x="310" y="285" as="sourcePoint" />
          </mxGeometry>
        </mxCell>
        <mxCell id="VfObI5IF9muUUuVanHOG-21" style="edgeStyle=orthogonalEdgeStyle;rounded=0;orthogonalLoop=1;jettySize=auto;html=1;entryX=0.5;entryY=0;entryDx=0;entryDy=0;" edge="1" parent="VfObI5IF9muUUuVanHOG-1" source="VfObI5IF9muUUuVanHOG-15" target="VfObI5IF9muUUuVanHOG-4">
          <mxGeometry relative="1" as="geometry" />
        </mxCell>
        <mxCell id="VfObI5IF9muUUuVanHOG-15" value="Khởi tạo" style="rounded=1;whiteSpace=wrap;html=1;" vertex="1" parent="VfObI5IF9muUUuVanHOG-1">
          <mxGeometry x="309" y="70" width="80" height="35" as="geometry" />
        </mxCell>
        <mxCell id="VfObI5IF9muUUuVanHOG-9" value="Yêu cầu bổ sung thông tin" style="rounded=1;whiteSpace=wrap;html=1;" vertex="1" parent="VfObI5IF9muUUuVanHOG-1">
          <mxGeometry x="20" y="326" width="100" height="40" as="geometry" />
        </mxCell>
        <mxCell id="VfObI5IF9muUUuVanHOG-10" value="Đã phê duyệt" style="rounded=1;whiteSpace=wrap;html=1;" vertex="1" parent="VfObI5IF9muUUuVanHOG-1">
          <mxGeometry x="308.99" y="510" width="78.75" height="30" as="geometry" />
        </mxCell>
        <mxCell id="VfObI5IF9muUUuVanHOG-48" style="edgeStyle=orthogonalEdgeStyle;rounded=0;orthogonalLoop=1;jettySize=auto;html=1;entryX=0;entryY=0.5;entryDx=0;entryDy=0;exitX=1;exitY=0.5;exitDx=0;exitDy=0;" edge="1" parent="VfObI5IF9muUUuVanHOG-1" source="VfObI5IF9muUUuVanHOG-11" target="VfObI5IF9muUUuVanHOG-13">
          <mxGeometry relative="1" as="geometry">
            <mxPoint x="372" y="353" as="sourcePoint" />
          </mxGeometry>
        </mxCell>
        <mxCell id="VfObI5IF9muUUuVanHOG-13" value="Đã hủy" style="rounded=1;whiteSpace=wrap;html=1;" vertex="1" parent="VfObI5IF9muUUuVanHOG-1">
          <mxGeometry x="590" y="336" width="90" height="30" as="geometry" />
        </mxCell>
        <mxCell id="VfObI5IF9muUUuVanHOG-18" style="edgeStyle=orthogonalEdgeStyle;rounded=0;orthogonalLoop=1;jettySize=auto;html=1;exitX=0.5;exitY=1;exitDx=0;exitDy=0;" edge="1" parent="VfObI5IF9muUUuVanHOG-1" source="VfObI5IF9muUUuVanHOG-2" target="VfObI5IF9muUUuVanHOG-2">
          <mxGeometry relative="1" as="geometry" />
        </mxCell>
        <mxCell id="VfObI5IF9muUUuVanHOG-36" style="edgeStyle=orthogonalEdgeStyle;rounded=0;orthogonalLoop=1;jettySize=auto;html=1;exitX=1;exitY=0;exitDx=0;exitDy=0;entryX=0;entryY=0;entryDx=0;entryDy=0;" edge="1" parent="VfObI5IF9muUUuVanHOG-1" source="VfObI5IF9muUUuVanHOG-3" target="VfObI5IF9muUUuVanHOG-3">
          <mxGeometry relative="1" as="geometry" />
        </mxCell>
        <mxCell id="VfObI5IF9muUUuVanHOG-45" style="edgeStyle=orthogonalEdgeStyle;rounded=0;orthogonalLoop=1;jettySize=auto;html=1;entryX=0.878;entryY=0.04;entryDx=0;entryDy=0;entryPerimeter=0;" edge="1" parent="VfObI5IF9muUUuVanHOG-1" source="VfObI5IF9muUUuVanHOG-15" target="VfObI5IF9muUUuVanHOG-13">
          <mxGeometry relative="1" as="geometry" />
        </mxCell>
        <mxCell id="VfObI5IF9muUUuVanHOG-46" style="edgeStyle=orthogonalEdgeStyle;rounded=0;orthogonalLoop=1;jettySize=auto;html=1;entryX=0.5;entryY=0;entryDx=0;entryDy=0;" edge="1" parent="VfObI5IF9muUUuVanHOG-1" source="VfObI5IF9muUUuVanHOG-4" target="VfObI5IF9muUUuVanHOG-13">
          <mxGeometry relative="1" as="geometry" />
        </mxCell>
        <mxCell id="VfObI5IF9muUUuVanHOG-94" style="edgeStyle=orthogonalEdgeStyle;rounded=0;orthogonalLoop=1;jettySize=auto;html=1;entryX=1;entryY=0.5;entryDx=0;entryDy=0;" edge="1" parent="VfObI5IF9muUUuVanHOG-1" source="VfObI5IF9muUUuVanHOG-11" target="VfObI5IF9muUUuVanHOG-2">
          <mxGeometry relative="1" as="geometry" />
        </mxCell>
        <mxCell id="VfObI5IF9muUUuVanHOG-11" value="Bị từ chối" style="rounded=1;whiteSpace=wrap;html=1;" vertex="1" parent="VfObI5IF9muUUuVanHOG-1">
          <mxGeometry x="460" y="336" width="69" height="30" as="geometry" />
        </mxCell>
        <mxCell id="VfObI5IF9muUUuVanHOG-57" value="" style="endArrow=classic;html=1;rounded=0;entryX=0.5;entryY=1;entryDx=0;entryDy=0;exitX=0.673;exitY=1.067;exitDx=0;exitDy=0;exitPerimeter=0;" edge="1" parent="VfObI5IF9muUUuVanHOG-1" source="VfObI5IF9muUUuVanHOG-13" target="VfObI5IF9muUUuVanHOG-2">
          <mxGeometry width="50" height="50" relative="1" as="geometry">
            <mxPoint x="660" y="310" as="sourcePoint" />
            <mxPoint x="398.3800000000001" y="560" as="targetPoint" />
            <Array as="points">
              <mxPoint x="653" y="660" />
              <mxPoint x="533" y="660" />
            </Array>
          </mxGeometry>
        </mxCell>
        <mxCell id="VfObI5IF9muUUuVanHOG-69" style="edgeStyle=orthogonalEdgeStyle;rounded=0;orthogonalLoop=1;jettySize=auto;html=1;" edge="1" parent="VfObI5IF9muUUuVanHOG-1" source="VfObI5IF9muUUuVanHOG-65" target="VfObI5IF9muUUuVanHOG-10">
          <mxGeometry relative="1" as="geometry" />
        </mxCell>
        <mxCell id="VfObI5IF9muUUuVanHOG-65" value="Đang xem xét" style="rounded=1;whiteSpace=wrap;html=1;" vertex="1" parent="VfObI5IF9muUUuVanHOG-1">
          <mxGeometry x="299" y="280" width="100" height="30" as="geometry" />
        </mxCell>
        <mxCell id="VfObI5IF9muUUuVanHOG-68" value="" style="endArrow=classic;html=1;rounded=0;exitX=0.5;exitY=1;exitDx=0;exitDy=0;entryX=0.407;entryY=1.093;entryDx=0;entryDy=0;entryPerimeter=0;" edge="1" parent="VfObI5IF9muUUuVanHOG-1" source="VfObI5IF9muUUuVanHOG-9" target="VfObI5IF9muUUuVanHOG-13">
          <mxGeometry width="50" height="50" relative="1" as="geometry">
            <mxPoint x="290" y="500" as="sourcePoint" />
            <mxPoint x="630" y="370" as="targetPoint" />
            <Array as="points">
              <mxPoint x="70" y="470" />
              <mxPoint x="627" y="470" />
            </Array>
          </mxGeometry>
        </mxCell>
        <mxCell id="VfObI5IF9muUUuVanHOG-70" value="" style="endArrow=classic;html=1;rounded=0;exitX=1;exitY=0.5;exitDx=0;exitDy=0;entryX=0.25;entryY=1;entryDx=0;entryDy=0;" edge="1" parent="VfObI5IF9muUUuVanHOG-1" source="VfObI5IF9muUUuVanHOG-9" target="VfObI5IF9muUUuVanHOG-65">
          <mxGeometry width="50" height="50" relative="1" as="geometry">
            <mxPoint x="290" y="400" as="sourcePoint" />
            <mxPoint x="340" y="350" as="targetPoint" />
            <Array as="points">
              <mxPoint x="325" y="346" />
            </Array>
          </mxGeometry>
        </mxCell>
        <mxCell id="VfObI5IF9muUUuVanHOG-73" value="Nhân viên gửi đơn" style="text;html=1;align=center;verticalAlign=middle;resizable=0;points=[];autosize=1;strokeColor=none;fillColor=none;" vertex="1" parent="VfObI5IF9muUUuVanHOG-1">
          <mxGeometry x="294" y="110" width="120" height="30" as="geometry" />
        </mxCell>
        <mxCell id="VfObI5IF9muUUuVanHOG-78" value="Hủy đơn" style="text;html=1;align=center;verticalAlign=middle;resizable=0;points=[];autosize=1;strokeColor=none;fillColor=none;" vertex="1" parent="VfObI5IF9muUUuVanHOG-1">
          <mxGeometry x="510" y="80" width="70" height="30" as="geometry" />
        </mxCell>
        <mxCell id="VfObI5IF9muUUuVanHOG-77" value="Hủy đơn" style="text;html=1;align=center;verticalAlign=middle;resizable=0;points=[];autosize=1;strokeColor=none;fillColor=none;" vertex="1" parent="VfObI5IF9muUUuVanHOG-1">
          <mxGeometry x="500" y="170" width="70" height="30" as="geometry" />
        </mxCell>
        <mxCell id="VfObI5IF9muUUuVanHOG-76" value="Hủy đơn" style="text;html=1;align=center;verticalAlign=middle;resizable=0;points=[];autosize=1;strokeColor=none;fillColor=none;" vertex="1" parent="VfObI5IF9muUUuVanHOG-1">
          <mxGeometry x="529" y="321" width="70" height="30" as="geometry" />
        </mxCell>
        <mxCell id="VfObI5IF9muUUuVanHOG-75" value="Hủy đơn" style="text;html=1;align=center;verticalAlign=middle;resizable=0;points=[];autosize=1;strokeColor=none;fillColor=none;" vertex="1" parent="VfObI5IF9muUUuVanHOG-1">
          <mxGeometry x="150" y="440" width="70" height="30" as="geometry" />
        </mxCell>
        <mxCell id="VfObI5IF9muUUuVanHOG-81" value="Quản lí xem xét" style="text;html=1;align=center;verticalAlign=middle;resizable=0;points=[];autosize=1;strokeColor=none;fillColor=none;" vertex="1" parent="VfObI5IF9muUUuVanHOG-1">
          <mxGeometry x="294" y="220" width="110" height="30" as="geometry" />
        </mxCell>
        <mxCell id="VfObI5IF9muUUuVanHOG-82" value="Quản lí duyệt đơn" style="text;html=1;align=center;verticalAlign=middle;resizable=0;points=[];autosize=1;strokeColor=none;fillColor=none;" vertex="1" parent="VfObI5IF9muUUuVanHOG-1">
          <mxGeometry x="288.37" y="400" width="120" height="30" as="geometry" />
        </mxCell>
        <mxCell id="VfObI5IF9muUUuVanHOG-83" value="Quản lí cần thêm thông tin" style="text;html=1;align=center;verticalAlign=middle;resizable=0;points=[];autosize=1;strokeColor=none;fillColor=none;" vertex="1" parent="VfObI5IF9muUUuVanHOG-1">
          <mxGeometry x="83" y="270" width="160" height="30" as="geometry" />
        </mxCell>
        <mxCell id="VfObI5IF9muUUuVanHOG-84" value="Quản lí từ chối" style="text;html=1;align=center;verticalAlign=middle;resizable=0;points=[];autosize=1;strokeColor=none;fillColor=none;" vertex="1" parent="VfObI5IF9muUUuVanHOG-1">
          <mxGeometry x="429" y="270" width="100" height="30" as="geometry" />
        </mxCell>
        <mxCell id="VfObI5IF9muUUuVanHOG-85" value="Nhân viên bổ sung thông tin" style="text;html=1;align=center;verticalAlign=middle;resizable=0;points=[];autosize=1;strokeColor=none;fillColor=none;" vertex="1" parent="VfObI5IF9muUUuVanHOG-1">
          <mxGeometry x="124" y="321" width="170" height="30" as="geometry" />
        </mxCell>
        <mxCell id="VfObI5IF9muUUuVanHOG-93" value="" style="endArrow=classic;html=1;rounded=0;exitX=0.5;exitY=1;exitDx=0;exitDy=0;entryX=0.5;entryY=0;entryDx=0;entryDy=0;" edge="1" parent="VfObI5IF9muUUuVanHOG-1" source="VfObI5IF9muUUuVanHOG-10" target="VfObI5IF9muUUuVanHOG-2">
          <mxGeometry width="50" height="50" relative="1" as="geometry">
            <mxPoint x="293" y="560" as="sourcePoint" />
            <mxPoint x="343" y="510" as="targetPoint" />
            <Array as="points" />
          </mxGeometry>
        </mxCell>
      </root>
    </mxGraphModel>
  </diagram>
</mxfile>
